<?xml version="1.0" encoding="UTF-8"?>
<svg id="Layer_1" xmlns="http://www.w3.org/2000/svg" version="1.1" viewBox="0 0 740 227.69">
  <!-- Generator: Adobe Illustrator 29.8.2, SVG Export Plug-In . SVG Version: 2.1.1 Build 3)  -->
  <defs>
    <style>
      .st0 {
        font-family: Arial-BoldMT, Arial;
        font-size: 54.28px;
        font-weight: 700;
      }

      .st0, .st1 {
        isolation: isolate;
      }

      .st0, .st2 {
        fill: #fff;
      }

      .st3 {
        fill: #ea3f4f;
      }
    </style>
  </defs>
  <rect class="st3" width="740" height="227.69" rx="22.86" ry="22.86"/>
  <path class="st2" d="M68.07,33.43c-7.9,4.69-23.45,22.56-23.6,27.24v7.76c0,9.83,9.19,18.48,17.54,18.48,10.02,0,18.37-8.31,18.37-18.16,0,9.86,8.07,18.16,18.09,18.16s17.82-8.31,17.82-18.16c0,9.86,8.58,18.16,18.6,18.16h.18c10.02,0,18.6-8.31,18.6-18.16,0,9.86,7.81,18.16,17.83,18.16s18.08-8.31,18.08-18.16c0,9.86,8.35,18.16,18.37,18.16,8.35,0,17.54-8.64,17.54-18.48v-7.76c-.15-4.69-15.7-22.56-23.6-27.24-24.54-.86-41.55-1.01-66.91-1.01s-59.92.4-66.91,1.01h0ZM116.16,82.28c-.96,1.67-2.14,3.2-3.53,4.54-3.92,3.84-9.2,6-14.69,5.99-5.5,0-10.78-2.15-14.71-5.99-1.33-1.32-2.46-2.82-3.37-4.45h0c-.95,1.68-2.28,3.11-3.65,4.46-3.93,3.84-9.22,5.99-14.72,5.99-.68-.02-1.35-.15-1.98-.39-.69,7.4-1.12,14.82-1.27,22.25v.03l-.05,8.8c.15,17.6-1.74,57.05,7.76,66.74,14.73,3.43,41.83,5,69.01,5.01h0c27.19,0,54.29-1.58,69.01-5.01,9.51-9.69,7.61-49.14,7.76-66.75l-.05-8.8v-.04c-.15-7.43-.57-14.85-1.27-22.25-.64.24-1.31.37-1.98.39-5.5,0-10.78-2.15-14.72-5.99-1.37-1.35-2.7-2.78-3.65-4.45h0c-.91,1.63-2.04,3.13-3.37,4.44-3.93,3.85-9.21,6-14.71,5.99-5.49,0-10.77-2.15-14.69-5.99-1.38-1.34-2.57-2.87-3.53-4.54-.95,1.67-2.12,3.2-3.49,4.54-3.93,3.85-9.22,6-14.72,5.99-.2,0-.4,0-.6-.02h0c-.2,0-.4.02-.6.02-5.5,0-10.79-2.15-14.72-5.99-1.37-1.34-2.55-2.87-3.5-4.54h0l.03.02ZM101.05,101.82h.01c5.98.02,11.3.01,17.89,7.2,5.32-.55,10.67-.82,16.03-.81,5.35-.01,10.7.26,16.03.81,6.59-7.19,11.91-7.18,17.89-7.19h0c2.83,0,14.14,0,22.02,22.13l8.47,30.37c6.27,22.59-2.01,23.14-12.34,23.16-15.32-.57-23.8-11.7-23.8-22.82-8.48,1.39-18.38,2.09-28.27,2.09s-19.79-.7-28.27-2.09c0,11.13-8.48,22.25-23.8,22.82-10.33-.02-18.61-.57-12.34-23.17l8.47-30.36c7.88-22.14,19.19-22.14,22.02-22.14h-.02ZM134.97,119.22s-16.13,14.82-19.03,20.08l10.55-.42v9.2c0,.43,4.23.25,8.47.06,4.24.2,8.48.37,8.48-.06v-9.2l10.55.42c-2.9-5.26-19.03-20.08-19.03-20.08h0Z"/>
  <path class="st2" d="M286.69,189.97v-73.64h24.85v73.64h-24.85ZM299.26,110.33c-4.19,0-7.44-1.05-9.73-3.14-2.19-2.1-3.29-4.89-3.29-8.38,0-3.29,1.1-6.09,3.29-8.38,2.3-2.29,5.54-3.44,9.73-3.44s7.39,1.15,9.58,3.44c2.3,2.29,3.44,5.09,3.44,8.38,0,3.49-1.15,6.29-3.44,8.38-2.2,2.09-5.39,3.14-9.58,3.14ZM348.61,191.46c-7.19,0-12.63-1.9-16.32-5.69-3.59-3.89-5.39-9.28-5.39-16.16v-34.88h-9.88v-18.41h9.88v-17.96h24.85v17.96h16.17v18.41h-16.17v31.29c0,2.3.45,3.94,1.35,4.94,1,.9,2.49,1.35,4.49,1.35,2.7,0,5.64-1.2,8.83-3.59l5.69,16.32c-2.89,2-6.19,3.59-9.88,4.79-3.69,1.1-8.23,1.65-13.62,1.65h0v-.02ZM409.73,191.46c-11.38,0-20.36-3.24-26.94-9.73-6.49-6.49-9.73-15.92-9.73-28.29,0-8.98,1.85-16.52,5.54-22.6,3.79-6.29,8.53-10.53,14.23-12.73,5.99-2.3,11.53-3.44,16.62-3.44,6.38,0,11.72,1.3,16.02,3.89,4.29,2.49,7.43,5.24,9.43,8.23,2.1,2.99,3.6,5.34,4.49,7.03l-17.21,11.08c-1.59-3.29-3.34-5.89-5.24-7.79-1.89-1.89-4.19-2.84-6.88-2.84-3.79,0-6.79,1.5-8.98,4.49s-3.29,7.53-3.29,13.62c0,6.59,1.3,11.43,3.89,14.52,2.59,3.09,6.28,4.64,11.07,4.64,3.79,0,6.94-.7,9.43-2.1,2.6-1.4,5.04-3.2,7.34-5.39l7.94,18.56c-2.4,1.99-5.94,3.99-10.63,5.99-4.69,1.89-10.38,2.84-17.06,2.84h-.02l-.02.02ZM445.88,189.97v-99.99h25v30.39c2.09-1.5,4.64-2.79,7.63-3.89,2.99-1.2,6.59-1.8,10.78-1.8,8.78,0,15.32,2.49,19.61,7.48,4.39,4.99,6.59,12.03,6.59,21.11v46.7h-25v-43.71c0-4.19-.8-7.23-2.39-9.13-1.59-1.99-3.69-2.99-6.29-2.99-2.19,0-4.24.5-6.14,1.5-1.89,1-3.49,2.05-4.79,3.15v51.19h-25v-.02h0ZM534.68,191.46c-3.99,0-7.13-1.15-9.43-3.44-2.29-2.3-3.44-5.24-3.44-8.83s1.15-6.59,3.44-8.98c2.3-2.39,5.44-3.59,9.43-3.59s6.84,1.2,9.13,3.59c2.3,2.39,3.45,5.39,3.45,8.98s-1.15,6.54-3.44,8.83c-2.19,2.3-5.24,3.44-9.13,3.44h-.01ZM553.06,189.97v-73.64h24.85v73.64h-24.85ZM565.63,110.35c-4.19,0-7.43-1.05-9.73-3.14-2.19-2.09-3.29-4.89-3.29-8.38,0-3.29,1.1-6.09,3.29-8.38,2.3-2.3,5.54-3.44,9.73-3.44s7.39,1.15,9.58,3.44c2.29,2.3,3.44,5.09,3.44,8.39,0,3.49-1.15,6.29-3.44,8.38-2.19,2.1-5.39,3.14-9.58,3.14h0ZM621.78,191.46c-5.79,0-10.93-.95-15.42-2.84-4.49-2-8.33-4.69-11.52-8.08-3.09-3.49-5.49-7.58-7.18-12.27-1.6-4.79-2.4-9.98-2.4-15.57,0-8.28,1.8-15.51,5.39-21.7,3.69-6.09,8.28-10.33,13.77-12.72,5.59-2.4,11.38-3.59,17.36-3.59,8.58,0,15.66,2,21.25,5.99,5.69,3.99,9.68,8.98,11.98,14.97,2.29,5.99,3.44,11.68,3.44,17.07s-.85,10.78-2.55,15.57c-1.59,4.69-3.99,8.78-7.19,12.27-3.09,3.39-6.94,6.09-11.53,8.09-4.49,1.9-9.63,2.85-15.42,2.85h.02v-.04ZM621.78,172.3c4.19,0,7.23-1.74,9.13-5.23,1.89-3.59,2.84-8.38,2.84-14.37s-1-10.23-2.99-13.62-4.99-5.09-8.98-5.09-6.84,1.7-8.83,5.09-2.99,7.93-2.99,13.62c0,5.99.95,10.78,2.85,14.37,2,3.49,4.99,5.24,8.98,5.24h-.01Z"/>
  <g class="st1">
    <g class="st1">
      <text class="st0" transform="translate(331.72 66.43)"><tspan x="0" y="0">available on</tspan></text>
    </g>
  </g>
</svg>